<svg xmlns="http://www.w3.org/2000/svg" xmlns:xlink="http://www.w3.org/1999/xlink" version="1.1" x="0px" y="0px" viewBox="0 0 100 125" enable-background="new 0 0 100 100" xml:space="preserve"><path d="M49.619,95.698c22.916,0,27.877-21.034,27.877-26.24c0-4.035-0.241-7.708-2.544-10.85c-1.742-8.885,0.6-26.846,2.491-33.807  c2.11-7.768,2.055-13.441-0.165-16.862c-1.263-1.946-3.178-3.131-5.69-3.522c-2.157-0.337-3.998,0.071-5.464,1.212  c-3.294,2.563-3.819,8.135-4.282,13.05c-0.094,0.994-0.185,1.955-0.295,2.842c-0.476,3.804-1.908,10.516-2.998,15.358  c-1.542-5.788-3.774-14.595-4.535-19.756c-0.948-6.424-2.677-10.184-5.441-11.832c-1.826-1.089-4.016-1.181-6.511-0.273  c-6.238,2.27-4.776,7.743-3.362,13.037c0.306,1.147,0.623,2.335,0.903,3.573c1.03,4.561,1.966,8.983,2.512,11.604  c-0.316-0.034-0.637-0.062-0.978-0.062c-3.953,0-6.308,2.508-7.53,4.934c-1.718-1.455-3.957-1.887-6-1.887  c-3.008,0-6.594,1.791-6.594,10.322v4.366c0,0.491,0.02,0.957,0.049,1.411c-0.029,0.117-0.049,0.237-0.049,0.362v15.145  C21.014,75.054,26.269,95.698,49.619,95.698z M42.529,20.966c-0.293-1.295-0.617-2.511-0.932-3.687  c-1.637-6.131-1.883-8.217,1.49-9.444c1.628-0.593,2.919-0.582,3.948,0.031c1.878,1.12,3.227,4.381,4.01,9.693  c1.229,8.323,5.979,25.149,6.181,25.861c0.184,0.647,0.773,1.092,1.443,1.092c0.01,0,0.02,0,0.03,0  c0.682-0.014,1.269-0.486,1.428-1.149c0.146-0.606,3.576-14.915,4.396-21.472c0.114-0.915,0.208-1.906,0.305-2.932  c0.387-4.098,0.867-9.197,3.139-10.964c0.798-0.621,1.831-0.821,3.16-0.615c1.656,0.258,2.846,0.975,3.635,2.19  c1.711,2.637,1.637,7.631-0.213,14.442c-1.658,6.102-3.84,21.189-3.043,31.339c-3.645-2.641-8.885-5.495-14.52-5.495h-7.459v-6.459  c0-2.605-0.959-6.912-4.108-9.007C45.035,32.52,43.859,26.855,42.529,20.966z M41.137,36.168c5.329,0,5.391,6.937,5.391,7.231v6.459  h-5.386c-1.817,0-3.533,0.886-4.591,2.37c-0.179,0.251-0.326,0.514-0.46,0.783c0.379-2.385,0.383-4.949,0.383-7.111  c0-1.972-0.295-3.558-0.797-4.832C36.013,39.816,37.313,36.168,41.137,36.168z M35.515,55.505c0.004,0.365,0.038,0.732,0.115,1.096  c-0.108-0.126-0.22-0.292-0.335-0.512C35.369,55.895,35.45,55.706,35.515,55.505z M24.014,46.537c0-7.322,2.705-7.322,3.594-7.322  c2.561,0,4.207,0.776,5.085,2.493c0.028,0.081,0.063,0.158,0.104,0.232c0.457,1.012,0.679,2.318,0.679,3.961  c0,4.148-0.129,7.56-1.171,9.637c-0.002,0.006-0.005,0.011-0.008,0.016c-0.698,1.38-1.798,2.172-3.552,2.172  c-4.157,0-4.73-3.279-4.73-6.822V46.537z M24.014,59.31c1.213,0.941,2.79,1.416,4.73,1.416c2.187,0,3.739-0.73,4.864-1.888  c0.478,0.475,1.023,0.801,1.636,0.964c0.305,0.08,0.599,0.114,0.879,0.114c0.298,0,0.577-0.042,0.836-0.103  c3.665,6.572,10.474,6.327,13.935,6.196c0.405-0.016,0.768-0.03,1.076-0.03c2.813,0,5.021,3.055,5.062,3.113  c0.476,0.678,1.409,0.843,2.086,0.368c0.68-0.474,0.846-1.409,0.371-2.088c-0.125-0.18-3.117-4.394-7.52-4.394  c-0.342,0-0.744,0.015-1.192,0.032c-3.621,0.144-9.672,0.376-12.125-6.71c-0.274-0.792-0.149-1.642,0.343-2.332  c0.502-0.706,1.284-1.11,2.146-1.11h15.845c4.096,0,8.908,1.957,13.55,5.511c3.685,2.823,3.96,6.224,3.96,11.089  c0,4.611-4.427,23.24-24.877,23.24c-20.901,0-25.605-18.423-25.605-24.877V59.31z"/><text x="0" y="115" fill="#000000" font-size="5px" font-weight="bold" font-family="'Helvetica Neue', Helvetica, Arial-Unicode, Arial, Sans-serif">Created by leodemic</text><text x="0" y="120" fill="#000000" font-size="5px" font-weight="bold" font-family="'Helvetica Neue', Helvetica, Arial-Unicode, Arial, Sans-serif">from the Noun Project</text></svg>