<svg xmlns="http://www.w3.org/2000/svg" xmlns:xlink="http://www.w3.org/1999/xlink" version="1.1" x="0px" y="0px" viewBox="0 0 100 125" enable-background="new 0 0 100 100" xml:space="preserve"><path d="M89.929,50.706c-0.778-1.873-0.965-4.757-1.18-8.096c-0.29-4.487-0.649-10.072-2.65-15.738  C82.08,15.483,75.124,13.59,70.24,13.157c-2.295-0.203-4.425,0.64-6.146,2.439c-0.604,0.633-1.42,0.988-2.296,1.003  c-0.824,0.014-1.64-0.299-2.235-0.882c-5.584-5.472-10.504-5.062-14.575-3.941c-3.919,1.078-6.282,4.218-7.574,6.661  c-0.562,1.059-1.688,1.717-2.941,1.717h-7.95c-3.189,0-5.83,1.744-7.437,4.91c-0.406,0.797-1.258,1.252-2.132,1.211  c-3.185-0.225-5.906,0.69-8.075,2.713c-4.249,3.964-4.579,10.375-4.579,12.245V64.67c0,4.852,3.913,10.074,12.504,10.074  c1.619,0,2.931-0.228,3.939-0.671c3.159,4.236,8.481,4.224,11.847,4.237c0.432-0.002,0.85-0.001,1.239,0.007  c0.062,0.001,0.123,0.002,0.185,0.002c3.78,0,6.126-2.303,7.296-3.89c0.9,0.492,1.961,0.892,3.197,1.2  c-2.385,3.06-2.602,7.048-1.785,9.43c0.804,2.338,2.966,3.858,5.335,3.858c0.287,0,0.577-0.022,0.868-0.068  c5.582-0.881,14.603-0.964,26.812-0.246c10.852,0.654,14.378-7.013,18.457-15.875c3.571-7.759,0.015-14.121-2.582-18.768  C90.95,52.779,90.326,51.662,89.929,50.706z M91.469,71.474c-4.434,9.63-7.133,14.648-15.557,14.135  c-12.6-0.741-21.58-0.649-27.454,0.277c-1.244,0.195-2.472-0.56-2.898-1.802c-0.447-1.299-0.598-5.453,2.594-7.868  c1.12,0.101,2.337,0.155,3.671,0.155c4.136,0,7.103-0.991,9.068-3.03c0.168-0.174,0.322-0.354,0.47-0.536  c1.741,1.481,5.164,3.368,11.318,3.368c7.674,0,12.075-4.975,12.075-13.647V38.517c0-0.828-0.672-1.5-1.5-1.5s-1.5,0.672-1.5,1.5  v24.009c0,4.857-1.574,10.647-9.075,10.647c-6.252,0-8.933-2.096-9.845-3.072c0.866-2.519,0.765-5.361,0.676-7.797  c-0.024-0.674-0.049-1.321-0.049-1.922V40.947c0-0.828-0.672-1.5-1.5-1.5s-1.5,0.672-1.5,1.5v19.436  c0,0.635,0.024,1.318,0.051,2.031c0.115,3.161,0.246,6.743-1.78,8.845c-1.353,1.402-3.677,2.113-6.909,2.113  c-11.537,0-12.37-3.773-12.37-9.988V43.377c0-0.828-0.672-1.5-1.5-1.5s-1.5,0.672-1.5,1.5v20.007c0,3.883,0.562,6.993,2.506,9.196  c-0.781,1.102-2.43,2.822-5.073,2.738c-0.409-0.008-0.847-0.008-1.302-0.007c-3.764-0.001-7.955,0.002-10.067-4.036  c-0.011-0.021-0.021-0.042-0.033-0.063c-0.743-1.451-1.224-3.411-1.325-6.074c-0.472-12.541-0.761-17.698-0.763-17.749  c-0.047-0.826-0.743-1.439-1.583-1.413c-0.827,0.047-1.459,0.756-1.413,1.583c0.003,0.05,0.29,5.187,0.761,17.692  c0.094,2.511,0.506,4.535,1.141,6.172c-0.478,0.167-1.252,0.321-2.5,0.321c-3.287,0-9.504-1.479-9.504-7.074V41.233  c0-3.225,0.952-7.558,3.625-10.051c1.536-1.432,3.49-2.07,5.819-1.915c2.115,0.152,4.062-0.971,5.017-2.845  c1.101-2.169,2.702-3.269,4.762-3.269h7.95c2.367,0,4.51-1.27,5.593-3.313c1.016-1.921,2.833-4.378,5.718-5.172  c3.949-1.087,7.445-0.958,11.681,3.191c1.146,1.124,2.663,1.74,4.279,1.74c0.035,0,0.069-0.001,0.104-0.001  c1.686-0.028,3.254-0.714,4.416-1.93c1.1-1.149,2.31-1.655,3.713-1.524c4.675,0.415,9.909,2.132,13.295,11.725  c1.861,5.274,2.192,10.406,2.484,14.934c0.232,3.605,0.434,6.721,1.404,9.054c0.464,1.117,1.129,2.308,1.833,3.567  C91.402,59.736,94.401,65.101,91.469,71.474z"/><text x="0" y="115" fill="#000000" font-size="5px" font-weight="bold" font-family="'Helvetica Neue', Helvetica, Arial-Unicode, Arial, Sans-serif">Created by leodemic</text><text x="0" y="120" fill="#000000" font-size="5px" font-weight="bold" font-family="'Helvetica Neue', Helvetica, Arial-Unicode, Arial, Sans-serif">from the Noun Project</text></svg>